<svg width="271" height="16" viewBox="0 0 271 16" fill="none" xmlns="http://www.w3.org/2000/svg">
<path d="M16.0376 9.55469C16.0376 10.4928 15.8729 11.3558 15.5434 12.1436C15.2212 12.9313 14.7736 13.6117 14.2007 14.1846C13.6278 14.7503 12.9474 15.1943 12.1597 15.5166C11.3719 15.8389 10.5161 16 9.59227 16H2.05125C1.85073 16 1.66454 15.9642 1.49266 15.8926C1.32079 15.821 1.17039 15.7243 1.04149 15.6025C0.919744 15.4736 0.823064 15.3232 0.75145 15.1514C0.679835 14.9795 0.644028 14.7933 0.644028 14.5928V2.00293C0.644028 1.80957 0.679835 1.62695 0.75145 1.45508C0.823064 1.2832 0.919744 1.13281 1.04149 1.00391C1.17039 0.875 1.32079 0.77474 1.49266 0.703125C1.66454 0.63151 1.85073 0.595703 2.05125 0.595703H9.59227C10.5161 0.595703 11.3719 0.756836 12.1597 1.0791C12.9474 1.40137 13.6278 1.84896 14.2007 2.42188C14.7736 2.98763 15.2212 3.66797 15.5434 4.46289C15.8729 5.25065 16.0376 6.11003 16.0376 7.04102V9.55469ZM13.2446 7.04102C13.2446 6.49674 13.1551 5.99902 12.9761 5.54785C12.8042 5.09668 12.5571 4.71354 12.2348 4.39844C11.9126 4.07617 11.5259 3.8291 11.0747 3.65723C10.6307 3.47819 10.1365 3.38867 9.59227 3.38867H3.437V13.207H9.59227C10.1365 13.207 10.6307 13.1211 11.0747 12.9492C11.5259 12.7702 11.9126 12.5231 12.2348 12.208C12.5571 11.8857 12.8042 11.5026 12.9761 11.0586C13.1551 10.6074 13.2446 10.1061 13.2446 9.55469V7.04102ZM31.9781 12.0791C31.9781 12.5589 31.9173 12.9922 31.7955 13.3789C31.6738 13.7585 31.5126 14.0951 31.3121 14.3887C31.1116 14.6751 30.8788 14.9222 30.6139 15.1299C30.3489 15.3304 30.0696 15.4951 29.776 15.624C29.4895 15.7529 29.1959 15.8496 28.8951 15.9141C28.6015 15.9714 28.3222 16 28.0572 16H23.0191C22.6324 16 22.2099 15.932 21.7516 15.7959C21.2932 15.6598 20.8671 15.4378 20.4732 15.1299C20.0865 14.8148 19.7607 14.4102 19.4957 13.916C19.2379 13.4147 19.109 12.8024 19.109 12.0791V8.29785C19.109 7.58171 19.2379 6.97656 19.4957 6.48242C19.7607 5.98112 20.0865 5.5765 20.4732 5.26855C20.8671 4.95345 21.2932 4.72786 21.7516 4.5918C22.2099 4.45573 22.6324 4.3877 23.0191 4.3877H28.0572C28.7734 4.3877 29.3821 4.5166 29.8834 4.77441C30.3847 5.03223 30.7893 5.35807 31.0973 5.75195C31.4052 6.13867 31.6272 6.5612 31.7633 7.01953C31.9065 7.47786 31.9781 7.90397 31.9781 8.29785V12.0791ZM29.1852 8.31934C29.1852 7.93262 29.0885 7.64616 28.8951 7.45996C28.7018 7.27376 28.4225 7.18066 28.0572 7.18066H23.0406C22.6682 7.18066 22.3854 7.27734 22.192 7.4707C21.9986 7.6569 21.902 7.93262 21.902 8.29785V12.0791C21.902 12.4443 21.9986 12.7236 22.192 12.917C22.3854 13.1104 22.6682 13.207 23.0406 13.207H28.0572C28.4368 13.207 28.7197 13.1104 28.9059 12.917C29.0921 12.7236 29.1852 12.4443 29.1852 12.0791V8.31934ZM46.49 16H38.9167C38.53 16 38.1075 15.932 37.6491 15.7959C37.1908 15.6598 36.7647 15.4378 36.3708 15.1299C35.9841 14.8148 35.6583 14.4102 35.3933 13.916C35.1355 13.4147 35.0066 12.8024 35.0066 12.0791V8.29785C35.0066 8.03288 35.0352 7.75358 35.0925 7.45996C35.157 7.16634 35.2536 6.8763 35.3825 6.58984C35.5114 6.29622 35.6762 6.01693 35.8767 5.75195C36.0844 5.48698 36.3314 5.25423 36.6179 5.05371C36.9115 4.85319 37.2481 4.69206 37.6277 4.57031C38.0072 4.44857 38.4369 4.3877 38.9167 4.3877H46.49V7.18066H38.9167C38.5515 7.18066 38.2722 7.27376 38.0788 7.45996C37.8926 7.64616 37.7995 7.93262 37.7995 8.31934V12.0791C37.7995 12.4443 37.8962 12.7236 38.0896 12.917C38.2829 13.1104 38.5658 13.207 38.9382 13.207H46.49V16ZM62.3768 14.5928C62.3768 14.7933 62.341 14.9795 62.2694 15.1514C62.1978 15.3232 62.0975 15.4736 61.9686 15.6025C61.8469 15.7243 61.7 15.821 61.5282 15.8926C61.3635 15.9642 61.1844 16 60.9911 16H54.6747C54.3309 16 53.9621 15.9606 53.5682 15.8818C53.1815 15.8031 52.7984 15.6777 52.4188 15.5059C52.0392 15.3268 51.6704 15.1048 51.3123 14.8398C50.9614 14.5677 50.6535 14.2419 50.3885 13.8623C50.1235 13.4756 49.9087 13.0316 49.744 12.5303C49.5864 12.029 49.5077 11.4632 49.5077 10.833V4.3877H52.3006V10.833C52.3006 11.1982 52.3615 11.5277 52.4832 11.8213C52.6122 12.1077 52.784 12.3548 52.9989 12.5625C53.2137 12.7702 53.4644 12.9313 53.7508 13.0459C54.0444 13.1533 54.3595 13.207 54.6961 13.207H59.5838V4.3877H62.3768V14.5928ZM76.2441 16H73.4511V8.29785C73.4511 7.93262 73.3545 7.6569 73.1611 7.4707C72.9677 7.27734 72.6813 7.18066 72.3017 7.18066H68.6709V16H65.8779V5.77344C65.8779 5.58008 65.9137 5.40104 65.9853 5.23633C66.0569 5.06445 66.1572 4.91764 66.2861 4.7959C66.415 4.66699 66.5654 4.56673 66.7373 4.49512C66.9091 4.4235 67.0918 4.3877 67.2851 4.3877H72.3232C72.7099 4.3877 73.1253 4.45573 73.5693 4.5918C74.0133 4.72786 74.4358 4.94629 74.8369 5.24707V4.3877H78.6181C78.8831 4.3877 79.1624 4.41992 79.456 4.48438C79.7496 4.54167 80.0397 4.63477 80.3261 4.76367C80.6198 4.89258 80.8991 5.06087 81.164 5.26855C81.429 5.46908 81.6617 5.71615 81.8623 6.00977C82.0628 6.29622 82.2239 6.62923 82.3457 7.00879C82.4674 7.38835 82.5283 7.81803 82.5283 8.29785V16H79.7353V8.29785C79.7353 7.93262 79.6422 7.6569 79.456 7.4707C79.277 7.27734 78.9977 7.18066 78.6181 7.18066H76.1045C76.1976 7.52441 76.2441 7.89681 76.2441 8.29785V16ZM98.4796 8.2334C98.4796 8.62012 98.4115 9.03906 98.2755 9.49023C98.1394 9.93424 97.9174 10.3496 97.6095 10.7363C97.3087 11.1159 96.9112 11.4346 96.4171 11.6924C95.9301 11.9502 95.3357 12.0791 94.6339 12.0791H89.5958V9.42578H94.6339C95.0134 9.42578 95.3071 9.3112 95.5147 9.08203C95.7224 8.8457 95.8263 8.55566 95.8263 8.21191C95.8263 7.84668 95.7081 7.56022 95.4718 7.35254C95.2426 7.14486 94.9633 7.04102 94.6339 7.04102H89.5958C89.2162 7.04102 88.9226 7.15918 88.7149 7.39551C88.5072 7.62467 88.4034 7.91113 88.4034 8.25488V12.1543C88.4034 12.5267 88.518 12.8167 88.7472 13.0244C88.9835 13.2321 89.2735 13.3359 89.6173 13.3359H94.6339V16H89.5958C89.2091 16 88.7901 15.932 88.339 15.7959C87.8949 15.6598 87.4796 15.4414 87.0929 15.1406C86.7133 14.8327 86.3946 14.4352 86.1368 13.9482C85.879 13.4541 85.7501 12.8561 85.7501 12.1543V8.2334C85.7501 7.84668 85.8181 7.43132 85.9542 6.9873C86.0903 6.53613 86.3087 6.12077 86.6095 5.74121C86.9174 5.35449 87.3149 5.03223 87.8018 4.77441C88.296 4.5166 88.894 4.3877 89.5958 4.3877H94.6339C95.0206 4.3877 95.436 4.45573 95.88 4.5918C96.3311 4.72786 96.7465 4.94987 97.1261 5.25781C97.5128 5.55859 97.835 5.95605 98.0929 6.4502C98.3507 6.93717 98.4796 7.53158 98.4796 8.2334ZM114.109 16H111.316V9.55469C111.316 9.18945 111.251 8.86361 111.122 8.57715C111.001 8.28353 110.832 8.03288 110.617 7.8252C110.403 7.61751 110.148 7.45996 109.855 7.35254C109.568 7.23796 109.257 7.18066 108.92 7.18066H104.032V16H101.239V5.77344C101.239 5.58008 101.275 5.40104 101.347 5.23633C101.418 5.06445 101.519 4.91764 101.648 4.7959C101.777 4.66699 101.927 4.56673 102.099 4.49512C102.271 4.4235 102.453 4.3877 102.647 4.3877H108.942C109.293 4.3877 109.661 4.42708 110.048 4.50586C110.442 4.58464 110.829 4.71354 111.208 4.89258C111.595 5.06445 111.96 5.28646 112.304 5.55859C112.655 5.82357 112.963 6.14941 113.228 6.53613C113.5 6.91569 113.715 7.35612 113.872 7.85742C114.03 8.35872 114.109 8.92448 114.109 9.55469V16ZM127.654 7.18066H122.777V16H119.951V7.18066H116.321V4.3877H119.951V0.595703H122.777V4.3877H127.654V7.18066ZM153.745 14.5928C153.745 14.7933 153.709 14.9795 153.637 15.1514C153.566 15.3232 153.465 15.4736 153.336 15.6025C153.215 15.7243 153.068 15.821 152.896 15.8926C152.724 15.9642 152.538 16 152.337 16H142.261C142.003 16 141.724 15.9714 141.423 15.9141C141.13 15.8496 140.836 15.7529 140.543 15.624C140.256 15.4951 139.98 15.3304 139.715 15.1299C139.45 14.9222 139.214 14.6751 139.006 14.3887C138.806 14.0951 138.645 13.7585 138.523 13.3789C138.401 12.9922 138.34 12.5589 138.34 12.0791V4.5166C138.34 4.25879 138.369 3.98307 138.426 3.68945C138.491 3.38867 138.587 3.09505 138.716 2.80859C138.845 2.51497 139.014 2.23568 139.221 1.9707C139.429 1.70573 139.676 1.47298 139.962 1.27246C140.256 1.06478 140.593 0.900065 140.972 0.77832C141.352 0.656576 141.781 0.595703 142.261 0.595703H153.616V3.38867H142.261C141.896 3.38867 141.617 3.48535 141.423 3.67871C141.23 3.87207 141.133 4.15853 141.133 4.53809V12.0791C141.133 12.4372 141.23 12.7165 141.423 12.917C141.624 13.1104 141.903 13.207 142.261 13.207H150.952V9.70508H143.518V6.89062H152.337C152.538 6.89062 152.724 6.93001 152.896 7.00879C153.068 7.0804 153.215 7.18066 153.336 7.30957C153.465 7.43848 153.566 7.58887 153.637 7.76074C153.709 7.92546 153.745 8.10449 153.745 8.29785V14.5928ZM169.717 8.2334C169.717 8.62012 169.649 9.03906 169.513 9.49023C169.377 9.93424 169.155 10.3496 168.847 10.7363C168.547 11.1159 168.149 11.4346 167.655 11.6924C167.168 11.9502 166.574 12.0791 165.872 12.0791H160.834V9.42578H165.872C166.251 9.42578 166.545 9.3112 166.753 9.08203C166.96 8.8457 167.064 8.55566 167.064 8.21191C167.064 7.84668 166.946 7.56022 166.71 7.35254C166.48 7.14486 166.201 7.04102 165.872 7.04102H160.834C160.454 7.04102 160.161 7.15918 159.953 7.39551C159.745 7.62467 159.641 7.91113 159.641 8.25488V12.1543C159.641 12.5267 159.756 12.8167 159.985 13.0244C160.221 13.2321 160.511 13.3359 160.855 13.3359H165.872V16H160.834C160.447 16 160.028 15.932 159.577 15.7959C159.133 15.6598 158.717 15.4414 158.331 15.1406C157.951 14.8327 157.633 14.4352 157.375 13.9482C157.117 13.4541 156.988 12.8561 156.988 12.1543V8.2334C156.988 7.84668 157.056 7.43132 157.192 6.9873C157.328 6.53613 157.547 6.12077 157.847 5.74121C158.155 5.35449 158.553 5.03223 159.04 4.77441C159.534 4.5166 160.132 4.3877 160.834 4.3877H165.872C166.258 4.3877 166.674 4.45573 167.118 4.5918C167.569 4.72786 167.984 4.94987 168.364 5.25781C168.751 5.55859 169.073 5.95605 169.331 6.4502C169.589 6.93717 169.717 7.53158 169.717 8.2334ZM185.346 16H182.554V9.55469C182.554 9.18945 182.489 8.86361 182.36 8.57715C182.238 8.28353 182.07 8.03288 181.855 7.8252C181.64 7.61751 181.386 7.45996 181.093 7.35254C180.806 7.23796 180.495 7.18066 180.158 7.18066H175.27V16H172.477V5.77344C172.477 5.58008 172.513 5.40104 172.585 5.23633C172.656 5.06445 172.757 4.91764 172.886 4.7959C173.014 4.66699 173.165 4.56673 173.337 4.49512C173.509 4.4235 173.691 4.3877 173.885 4.3877H180.179C180.53 4.3877 180.899 4.42708 181.286 4.50586C181.68 4.58464 182.067 4.71354 182.446 4.89258C182.833 5.06445 183.198 5.28646 183.542 5.55859C183.893 5.82357 184.201 6.14941 184.466 6.53613C184.738 6.91569 184.953 7.35612 185.11 7.85742C185.268 8.35872 185.346 8.92448 185.346 9.55469V16ZM201.169 8.2334C201.169 8.62012 201.101 9.03906 200.965 9.49023C200.829 9.93424 200.607 10.3496 200.299 10.7363C199.998 11.1159 199.601 11.4346 199.106 11.6924C198.619 11.9502 198.025 12.0791 197.323 12.0791H192.285V9.42578H197.323C197.703 9.42578 197.996 9.3112 198.204 9.08203C198.412 8.8457 198.516 8.55566 198.516 8.21191C198.516 7.84668 198.397 7.56022 198.161 7.35254C197.932 7.14486 197.653 7.04102 197.323 7.04102H192.285C191.906 7.04102 191.612 7.15918 191.404 7.39551C191.197 7.62467 191.093 7.91113 191.093 8.25488V12.1543C191.093 12.5267 191.207 12.8167 191.436 13.0244C191.673 13.2321 191.963 13.3359 192.307 13.3359H197.323V16H192.285C191.898 16 191.479 15.932 191.028 15.7959C190.584 15.6598 190.169 15.4414 189.782 15.1406C189.403 14.8327 189.084 14.4352 188.826 13.9482C188.568 13.4541 188.439 12.8561 188.439 12.1543V8.2334C188.439 7.84668 188.507 7.43132 188.643 6.9873C188.78 6.53613 188.998 6.12077 189.299 5.74121C189.607 5.35449 190.004 5.03223 190.491 4.77441C190.985 4.5166 191.583 4.3877 192.285 4.3877H197.323C197.71 4.3877 198.125 4.45573 198.569 4.5918C199.02 4.72786 199.436 4.94987 199.815 5.25781C200.202 5.55859 200.524 5.95605 200.782 6.4502C201.04 6.93717 201.169 7.53158 201.169 8.2334ZM214.091 7.18066H207.807C207.427 7.18066 207.141 7.27734 206.947 7.4707C206.754 7.6569 206.657 7.93262 206.657 8.29785V16H203.864V8.29785C203.864 7.81803 203.925 7.38835 204.047 7.00879C204.169 6.62923 204.33 6.29622 204.53 6.00977C204.738 5.71615 204.974 5.46908 205.239 5.26855C205.504 5.06087 205.78 4.89258 206.066 4.76367C206.36 4.63477 206.654 4.54167 206.947 4.48438C207.248 4.41992 207.527 4.3877 207.785 4.3877H214.091V7.18066ZM227.904 12.1543C227.904 12.541 227.836 12.96 227.7 13.4111C227.564 13.8551 227.342 14.2705 227.034 14.6572C226.734 15.0368 226.336 15.3555 225.842 15.6133C225.355 15.8711 224.761 16 224.059 16H219.021C218.634 16 218.215 15.932 217.764 15.7959C217.32 15.6598 216.904 15.4414 216.518 15.1406C216.138 14.8327 215.82 14.4352 215.562 13.9482C215.304 13.4541 215.175 12.8561 215.175 12.1543C215.175 11.7676 215.243 11.3486 215.379 10.8975C215.515 10.4463 215.734 10.0309 216.034 9.65137C216.342 9.26465 216.74 8.94238 217.227 8.68457C217.721 8.42676 218.319 8.29785 219.021 8.29785H224.059V10.9619H219.021C218.641 10.9619 218.347 11.0801 218.14 11.3164C217.932 11.5456 217.828 11.832 217.828 12.1758C217.828 12.541 217.946 12.8275 218.183 13.0352C218.426 13.2357 218.713 13.3359 219.042 13.3359H224.059C224.438 13.3359 224.732 13.2214 224.94 12.9922C225.147 12.763 225.251 12.4766 225.251 12.1328V8.2334C225.251 7.86816 225.137 7.57812 224.907 7.36328C224.685 7.14844 224.403 7.04102 224.059 7.04102H217.925V4.3877H224.059C224.445 4.3877 224.861 4.45573 225.305 4.5918C225.756 4.72786 226.171 4.94987 226.551 5.25781C226.938 5.55859 227.26 5.95605 227.518 6.4502C227.776 6.93717 227.904 7.53158 227.904 8.2334V12.1543ZM241.686 7.18066H236.809V16H233.984V7.18066H230.353V4.3877H233.984V0.595703H236.809V4.3877H241.686V7.18066ZM256.993 12.0791C256.993 12.5589 256.932 12.9922 256.81 13.3789C256.688 13.7585 256.527 14.0951 256.327 14.3887C256.126 14.6751 255.893 14.9222 255.628 15.1299C255.363 15.3304 255.084 15.4951 254.79 15.624C254.504 15.7529 254.21 15.8496 253.91 15.9141C253.616 15.9714 253.337 16 253.072 16H248.034C247.647 16 247.224 15.932 246.766 15.7959C246.308 15.6598 245.882 15.4378 245.488 15.1299C245.101 14.8148 244.775 14.4102 244.51 13.916C244.252 13.4147 244.123 12.8024 244.123 12.0791V8.29785C244.123 7.58171 244.252 6.97656 244.51 6.48242C244.775 5.98112 245.101 5.5765 245.488 5.26855C245.882 4.95345 246.308 4.72786 246.766 4.5918C247.224 4.45573 247.647 4.3877 248.034 4.3877H253.072C253.788 4.3877 254.397 4.5166 254.898 4.77441C255.399 5.03223 255.804 5.35807 256.112 5.75195C256.42 6.13867 256.642 6.5612 256.778 7.01953C256.921 7.47786 256.993 7.90397 256.993 8.29785V12.0791ZM254.2 8.31934C254.2 7.93262 254.103 7.64616 253.91 7.45996C253.716 7.27376 253.437 7.18066 253.072 7.18066H248.055C247.683 7.18066 247.4 7.27734 247.206 7.4707C247.013 7.6569 246.916 7.93262 246.916 8.29785V12.0791C246.916 12.4443 247.013 12.7236 247.206 12.917C247.4 13.1104 247.683 13.207 248.055 13.207H253.072C253.451 13.207 253.734 13.1104 253.92 12.917C254.107 12.7236 254.2 12.4443 254.2 12.0791V8.31934ZM270.419 7.18066H264.135C263.756 7.18066 263.469 7.27734 263.276 7.4707C263.083 7.6569 262.986 7.93262 262.986 8.29785V16H260.193V8.29785C260.193 7.81803 260.254 7.38835 260.375 7.00879C260.497 6.62923 260.658 6.29622 260.859 6.00977C261.067 5.71615 261.303 5.46908 261.568 5.26855C261.833 5.06087 262.109 4.89258 262.395 4.76367C262.689 4.63477 262.982 4.54167 263.276 4.48438C263.577 4.41992 263.856 4.3877 264.114 4.3877H270.419V7.18066Z" fill="url(#paint0_linear_131_2265)"/>
<defs>
<linearGradient id="paint0_linear_131_2265" x1="15.165" y1="30" x2="251.275" y2="-26.4192" gradientUnits="userSpaceOnUse">
<stop stop-color="#88DED0"/>
<stop offset="0.5" stop-color="#36ACC5"/>
<stop offset="1" stop-color="#027EBF"/>
<stop offset="1" stop-color="#0A85C0"/>
</linearGradient>
</defs>
</svg>
